<svg width="54" height="49" viewBox="0 0 54 49" fill="none" xmlns="http://www.w3.org/2000/svg">
<g clip-path="url(#clip0_5804_4)">
<path d="M7.25879 36.7854C9.20427 38.1424 12.3585 38.1424 14.304 36.7854C16.2494 35.4284 16.2494 33.2282 14.304 31.8712C12.3585 30.5142 9.20427 30.5142 7.25879 31.8712C5.31331 33.2282 5.31331 35.4284 7.25879 36.7854Z" fill="#20BF55"/>
<path d="M27.4511 18.3574C30.3694 20.3928 35.1007 20.3928 38.019 18.3574C40.9371 16.3218 40.9371 13.0217 38.019 10.9862C35.1007 8.95066 30.3694 8.95066 27.4511 10.9862C24.533 13.0217 24.533 16.3218 27.4511 18.3574Z" fill="#20BF55"/>
<path d="M16.7323 27.5714C19.1641 29.2676 23.1069 29.2676 25.5387 27.5714C27.9706 25.8751 27.9706 23.1249 25.5387 21.4287C23.1069 19.7325 19.1641 19.7325 16.7323 21.4287C14.3004 23.1249 14.3004 25.8751 16.7323 27.5714Z" fill="#20BF55"/>
<path d="M1.09433 26.3428C2.55344 27.3606 4.91912 27.3606 6.37823 26.3428C7.83733 25.3251 7.83733 23.675 6.37823 22.6572C4.91912 21.6395 2.55344 21.6395 1.09433 22.6572C-0.364777 23.675 -0.364776 25.3251 1.09433 26.3428Z" fill="#20BF55"/>
<path d="M16.7323 7.91484C19.1641 9.61108 23.1069 9.61108 25.5387 7.91484C27.9706 6.21859 27.9706 3.46843 25.5387 1.77219C23.1069 0.0759378 19.1641 0.0759366 16.7323 1.77219C14.3004 3.46843 14.3004 6.21859 16.7323 7.91484Z" fill="#20BF55"/>
<path d="M7.25879 17.1288C9.20426 18.4858 12.3585 18.4858 14.304 17.1288C16.2494 15.7718 16.2494 13.5717 14.304 12.2147C12.3585 10.8577 9.20426 10.8577 7.25879 12.2147C5.31331 13.5717 5.31332 15.7718 7.25879 17.1288Z" fill="#20BF55"/>
<path d="M16.7323 47.2279C19.1641 48.924 23.1069 48.924 25.5387 47.2279C27.9706 45.5316 27.9706 42.7814 25.5387 41.0851C23.1069 39.389 19.1641 39.389 16.7323 41.0851C14.3004 42.7814 14.3004 45.5316 16.7323 47.2279Z" fill="#20BF55"/>
<path d="M40.2961 28.1856C43.2144 30.2211 47.9458 30.2211 50.864 28.1856C53.7822 26.1502 53.7822 22.8499 50.864 20.8145C47.9458 18.7789 43.2144 18.7789 40.2961 20.8145C37.378 22.8499 37.378 26.1502 40.2961 28.1856Z" fill="#20BF55"/>
<path d="M27.4511 38.0138C30.3694 40.0494 35.1007 40.0494 38.019 38.0138C40.9371 35.9783 40.9371 32.6782 38.019 30.6426C35.1007 28.6072 30.3694 28.6072 27.4511 30.6426C24.533 32.6782 24.533 35.9783 27.4511 38.0138Z" fill="#20BF55"/>
</g>
<defs>
<clipPath id="clip0_5804_4">
<rect width="53.0526" height="48" fill="white" transform="translate(0 0.5)"/>
</clipPath>
</defs>
</svg>
